<svg xmlns="http://www.w3.org/2000/svg" viewBox="0 0 200 200">
  <!-- 배경 -->
  <circle cx="100" cy="100" r="95" fill="#fce4ec" stroke="#f48fb1" stroke-width="4"/>
  <!-- 발레 치마 (튀튀) -->
  <ellipse cx="100" cy="148" rx="50" ry="22" fill="#f8bbd0"/>
  <ellipse cx="100" cy="148" rx="40" ry="17" fill="#f48fb1"/>
  <ellipse cx="100" cy="148" rx="28" ry="12" fill="#fce4ec"/>
  <!-- 몸통 -->
  <ellipse cx="100" cy="118" rx="22" ry="30" fill="#f48fb1"/>
  <!-- 고양이 머리 -->
  <circle cx="100" cy="80" r="32" fill="#ffccbc"/>
  <!-- 고양이 귀 -->
  <polygon points="74,52 62,28 88,45" fill="#ffccbc"/>
  <polygon points="78,50 68,32 88,45" fill="#f48fb1"/>
  <polygon points="126,52 138,28 112,45" fill="#ffccbc"/>
  <polygon points="122,50 132,32 112,45" fill="#f48fb1"/>
  <!-- 눈 -->
  <ellipse cx="86" cy="78" rx="9" ry="10" fill="#4a148c"/>
  <ellipse cx="114" cy="78" rx="9" ry="10" fill="#4a148c"/>
  <circle cx="88" cy="76" r="3" fill="white"/>
  <circle cx="116" cy="76" r="3" fill="white"/>
  <!-- 코 -->
  <ellipse cx="100" cy="90" rx="5" ry="3.5" fill="#e91e63"/>
  <!-- 입 -->
  <path d="M93,94 Q100,100 107,94" fill="none" stroke="#c2185b" stroke-width="2" stroke-linecap="round"/>
  <!-- 수염 -->
  <line x1="108" y1="91" x2="130" y2="87" stroke="#9e9e9e" stroke-width="1.5"/>
  <line x1="108" y1="93" x2="130" y2="93" stroke="#9e9e9e" stroke-width="1.5"/>
  <line x1="92" y1="91" x2="70" y2="87" stroke="#9e9e9e" stroke-width="1.5"/>
  <line x1="92" y1="93" x2="70" y2="93" stroke="#9e9e9e" stroke-width="1.5"/>
  <!-- 발레 팔 -->
  <path d="M78,110 Q50,90 45,75" fill="none" stroke="#ffccbc" stroke-width="10" stroke-linecap="round"/>
  <path d="M122,110 Q150,90 155,75" fill="none" stroke="#ffccbc" stroke-width="10" stroke-linecap="round"/>
  <!-- 이름 -->
  <text x="100" y="182" text-anchor="middle" font-family="Arial" font-size="10" font-weight="bold" fill="#880e4f">Lirili Larila 🩰</text>
</svg>
