<svg xmlns="http://www.w3.org/2000/svg" viewBox="0 0 200 200">
  <!-- 배경 -->
  <circle cx="100" cy="100" r="95" fill="#e8f5e9" stroke="#66bb6a" stroke-width="4"/>
  <!-- 비행기 날개 (왼쪽) -->
  <polygon points="30,100 75,80 75,120" fill="#388e3c"/>
  <!-- 비행기 날개 (오른쪽) -->
  <polygon points="170,100 125,80 125,120" fill="#388e3c"/>
  <!-- 악어 몸통 (비행기 동체) -->
  <ellipse cx="100" cy="105" rx="55" ry="30" fill="#66bb6a"/>
  <!-- 비행기 꼬리 날개 -->
  <polygon points="155,100 175,80 175,120" fill="#2e7d32"/>
  <!-- 악어 머리 -->
  <ellipse cx="60" cy="100" rx="28" ry="20" fill="#4caf50"/>
  <!-- 악어 주둥이 (위아래) -->
  <ellipse cx="38" cy="95" rx="20" ry="10" fill="#66bb6a"/>
  <ellipse cx="38" cy="107" rx="20" ry="10" fill="#4caf50"/>
  <!-- 이빨 -->
  <polygon points="24,97 28,105 32,97" fill="white"/>
  <polygon points="32,97 36,105 40,97" fill="white"/>
  <polygon points="40,97 44,105 48,97" fill="white"/>
  <!-- 눈 -->
  <circle cx="55" cy="88" r="9" fill="white"/>
  <circle cx="55" cy="88" r="5" fill="#1b5e20"/>
  <circle cx="57" cy="86" r="2" fill="white"/>
  <!-- 조종사 모자 -->
  <ellipse cx="100" cy="78" rx="30" ry="8" fill="#795548"/>
  <rect x="80" y="65" width="40" height="15" rx="5" fill="#5d4037"/>
  <rect x="85" y="67" width="30" height="8" rx="3" fill="#8d6e63"/>
  <!-- 이름 -->
  <text x="100" y="178" text-anchor="middle" font-family="Arial" font-size="10" font-weight="bold" fill="#1b5e20">Bombardiro ✈️</text>
</svg>
