<svg xmlns="http://www.w3.org/2000/svg" viewBox="0 0 200 200">
  <!-- 배경 -->
  <circle cx="100" cy="100" r="95" fill="#fffde7" stroke="#ffd600" stroke-width="4"/>
  <!-- 몸통 (네모 스펀지) -->
  <rect x="58" y="70" width="84" height="90" rx="12" fill="#ffd600"/>
  <!-- 스펀지 구멍들 -->
  <circle cx="75" cy="88" r="5" fill="#f9a825" opacity="0.7"/>
  <circle cx="95" cy="80" r="4" fill="#f9a825" opacity="0.7"/>
  <circle cx="115" cy="90" r="6" fill="#f9a825" opacity="0.7"/>
  <circle cx="70" cy="110" r="4" fill="#f9a825" opacity="0.7"/>
  <circle cx="108" cy="108" r="5" fill="#f9a825" opacity="0.7"/>
  <circle cx="130" cy="120" r="4" fill="#f9a825" opacity="0.7"/>
  <circle cx="80" cy="130" r="5" fill="#f9a825" opacity="0.7"/>
  <circle cx="100" cy="140" r="4" fill="#f9a825" opacity="0.7"/>
  <circle cx="125" cy="145" r="5" fill="#f9a825" opacity="0.7"/>
  <!-- 셔츠 (하얀 부분) -->
  <rect x="72" y="118" width="56" height="40" rx="8" fill="white"/>
  <!-- 넥타이 -->
  <polygon points="100,118 108,130 100,148 92,130" fill="#e53935"/>
  <!-- 눈 -->
  <circle cx="82" cy="95" r="14" fill="white"/>
  <circle cx="118" cy="95" r="14" fill="white"/>
  <circle cx="82" cy="95" r="9" fill="#1565c0"/>
  <circle cx="118" cy="95" r="9" fill="#1565c0"/>
  <circle cx="85" cy="92" r="3.5" fill="white"/>
  <circle cx="121" cy="92" r="3.5" fill="white"/>
  <!-- 눈썹 -->
  <path d="M70,83 Q82,77 94,83" fill="none" stroke="#33691e" stroke-width="4" stroke-linecap="round"/>
  <path d="M106,83 Q118,77 130,83" fill="none" stroke="#33691e" stroke-width="4" stroke-linecap="round"/>
  <!-- 코 -->
  <rect x="96" y="105" width="8" height="12" rx="3" fill="#fb8c00"/>
  <!-- 입 (크게 웃음) -->
  <path d="M72,118 Q100,136 128,118" fill="none" stroke="#e53935" stroke-width="3.5" stroke-linecap="round"/>
  <!-- 이빨 -->
  <rect x="85" y="118" width="12" height="10" rx="2" fill="white" stroke="#bdbdbd" stroke-width="1"/>
  <rect x="100" y="118" width="12" height="10" rx="2" fill="white" stroke="#bdbdbd" stroke-width="1"/>
  <!-- 팔다리 -->
  <rect x="38" y="100" width="20" height="50" rx="8" fill="#ffd600"/>
  <rect x="142" y="100" width="20" height="50" rx="8" fill="#ffd600"/>
  <rect x="68" y="158" width="18" height="30" rx="6" fill="#ffd600"/>
  <rect x="114" y="158" width="18" height="30" rx="6" fill="#ffd600"/>
  <!-- 구두 -->
  <ellipse cx="77" cy="190" rx="16" ry="8" fill="#1a237e"/>
  <ellipse cx="123" cy="190" rx="16" ry="8" fill="#1a237e"/>
  <!-- 이름 -->
  <text x="100" y="10" text-anchor="middle" font-family="Arial" font-size="9" font-weight="bold" fill="#f57f17">Spongebobini 🧽</text>
</svg>
