<svg xmlns="http://www.w3.org/2000/svg" viewBox="0 0 200 200">
  <!-- 배경 -->
  <circle cx="100" cy="100" r="95" fill="#e0f4ff" stroke="#4fc3f7" stroke-width="4"/>
  <!-- 상어 몸통 -->
  <ellipse cx="100" cy="115" rx="60" ry="38" fill="#4fc3f7"/>
  <!-- 상어 꼬리 -->
  <polygon points="155,115 185,90 185,140" fill="#29b6f6"/>
  <!-- 상어 지느러미 (등) -->
  <polygon points="95,80 115,78 105,110" fill="#0288d1"/>
  <!-- 상어 배 -->
  <ellipse cx="95" cy="122" rx="38" ry="22" fill="#e1f5fe"/>
  <!-- 눈 -->
  <circle cx="75" cy="105" r="10" fill="white"/>
  <circle cx="75" cy="105" r="6" fill="#1a237e"/>
  <circle cx="77" cy="103" r="2" fill="white"/>
  <!-- 입 (웃음) -->
  <path d="M60,130 Q80,148 110,132" fill="none" stroke="#0277bd" stroke-width="3" stroke-linecap="round"/>
  <!-- 이빨 -->
  <polygon points="65,130 70,140 75,130" fill="white"/>
  <polygon points="75,132 80,142 85,132" fill="white"/>
  <polygon points="85,130 90,140 95,130" fill="white"/>
  <!-- 팔다리 (귀여운 느낌) -->
  <ellipse cx="52" cy="120" rx="12" ry="8" fill="#4fc3f7" transform="rotate(-20,52,120)"/>
  <ellipse cx="148" cy="120" rx="12" ry="8" fill="#4fc3f7" transform="rotate(20,148,120)"/>
  <!-- 이름 -->
  <text x="100" y="178" text-anchor="middle" font-family="Arial" font-size="11" font-weight="bold" fill="#0277bd">Tralalero 🎵</text>
</svg>
